<?xml version="1.0" encoding="UTF-8" standalone="no"?>
<svg
   xmlns:dc="http://purl.org/dc/elements/1.1/"
   xmlns:cc="http://creativecommons.org/ns#"
   xmlns:rdf="http://www.w3.org/1999/02/22-rdf-syntax-ns#"
   xmlns:svg="http://www.w3.org/2000/svg"
   xmlns="http://www.w3.org/2000/svg"
   xmlns:sodipodi="http://sodipodi.sourceforge.net/DTD/sodipodi-0.dtd"
   xmlns:inkscape="http://www.inkscape.org/namespaces/inkscape"
   sodipodi:docname="slothpress.svg"
   inkscape:version="1.0beta2 (2b71d25, 2019-12-03)"
   id="svg8"
   version="1.1"
   viewBox="0 0 95.889412 95.889412"
   height="95.889412mm"
   width="95.889412mm">
  <defs
     id="defs2" />
  <sodipodi:namedview
     inkscape:window-maximized="0"
     inkscape:window-y="23"
     inkscape:window-x="0"
     inkscape:window-height="855"
     inkscape:window-width="1440"
     inkscape:guide-bbox="true"
     showguides="false"
     showgrid="false"
     inkscape:document-rotation="0"
     inkscape:current-layer="g922"
     inkscape:document-units="mm"
     inkscape:cy="181.20834"
     inkscape:cx="181.20834"
     inkscape:zoom="1.2623538"
     inkscape:pageshadow="2"
     inkscape:pageopacity="0.0"
     borderopacity="1.0"
     bordercolor="#666666"
     pagecolor="#ffffff"
     id="base"
     fit-margin-top="0"
     fit-margin-left="0"
     fit-margin-right="0"
     fit-margin-bottom="0">
    <sodipodi:guide
       id="guide897"
       orientation="1,0"
       position="1.3061794,45.940174" />
    <sodipodi:guide
       id="guide899"
       orientation="0,-1"
       position="42.198414,1.3061657" />
    <sodipodi:guide
       id="guide903"
       orientation="0,-1"
       position="38.99118,79.348863" />
  </sodipodi:namedview>
  <metadata
     id="metadata5">
    <rdf:RDF>
      <cc:Work
         rdf:about="">
        <dc:format>image/svg+xml</dc:format>
        <dc:type
           rdf:resource="http://purl.org/dc/dcmitype/StillImage" />
        <dc:title></dc:title>
      </cc:Work>
    </rdf:RDF>
  </metadata>
  <g
     id="layer1"
     inkscape:groupmode="layer"
     inkscape:label="Layer 1"
     style="display:inline"
     transform="translate(-26.222581,-67.382084)" />
  <g
     inkscape:groupmode="layer"
     id="layer3"
     inkscape:label="Layer 3"
     style="display:inline;opacity:1"
     transform="translate(-26.222581,-67.382084)" />
  <g
     inkscape:groupmode="layer"
     id="layer4"
     inkscape:label="Layer 4"
     style="display:inline"
     transform="translate(-26.222581,-67.382084)">
    <circle
       r="45.647511"
       cy="115.32679"
       cx="74.16729"
       id="path890"
       style="fill:#ffffff;stroke:#666666;stroke-width:2.64583;stroke-linecap:round;stroke-opacity:1" />
    <g
       transform="matrix(-0.82777648,0,0,0.82736476,135.56122,19.750317)"
       id="g888">
      <g
         style="display:inline;fill:#666666"
         id="g858"
         transform="matrix(0,-1,-1,0,189.49407,189.49408)">
        <circle
           r="46.638527"
           cy="91.210938"
           cx="-102.37978"
           id="path901"
           style="fill:#666666;fill-opacity:1;stroke:#666666;stroke-width:2.593;stroke-opacity:1"
           transform="matrix(-0.9633659,-0.26819049,-0.26819049,0.9633659,0,0)" />
      </g>
      <g
         style="display:inline;opacity:1"
         transform="rotate(-15.556619,74.167294,115.3268)"
         id="g957">
        <path
           id="path853"
           style="fill:#ffffff;fill-opacity:1;stroke:#666666;stroke-width:10.1015;stroke-miterlimit:4;stroke-dasharray:none;stroke-opacity:1"
           d="m 347.49219,285.87305 c -7.53368,28.04199 -28.24791,59.53955 -49.92578,86.83007 -13.02515,-22.20561 -34.43582,-38.89471 -59.69532,-46.26757 -12.2324,-3.57045 -33.50273,-4.48703 -45.88281,-1.97852 -37.86589,7.67263 -68.72923,35.56828 -77.24414,69.81445 -3.89952,15.68349 -4.96793,24.92847 -4.89453,42.38868 0.14396,34.26648 9.65179,65.61138 28.38867,93.59179 28.65273,42.78811 72.80985,69.63269 124.38086,75.61719 10.35842,1.20204 34.9217,0.40006 45.96289,-1.50195 49.42558,-8.51426 92.54368,-38.13962 118.51758,-81.42969 29.50798,-49.1802 31.86868,-111.44844 6.16797,-162.68359 -5.50205,-10.9686 -13.90396,-33.23809 -15.28549,-33.23809 -0.44379,0 -2.86555,9.1709 -3.24967,12.91973 -2.08857,20.38562 -11.20225,50.3425 -21.86914,71.88086 -15.05238,30.39341 -35.07422,55.09829 -61.16406,75.4707 -8.49934,6.63677 -18.07061,13.85761 -19.56208,11.72827 -0.50096,-0.71522 8.11464,-8.51054 7.232,-8.9021 85.56016,-109.42768 28.12305,-204.24023 28.12305,-204.24023 z"
           transform="scale(0.26458333)"
           inkscape:connector-curvature="0"
           sodipodi:nodetypes="ccscscsssscscssccc" />
        <g
           style="display:inline"
           id="g932"
           transform="matrix(0.81717234,-0.31446688,0.31446688,0.81717234,-35.554462,19.874877)">
          <g
             id="g922">
            <path
               id="path863"
               style="fill:#666666;fill-opacity:1;stroke:none;stroke-width:11.1859;stroke-miterlimit:4;stroke-dasharray:none"
               d="m 190.91797,447.49219 a 56.56854,45.456862 0 0 0 -56.56836,45.45703 56.56854,45.456862 0 0 0 56.56836,45.45703 56.56854,45.456862 0 0 0 42,-15.00781 56.56854,45.456862 0 0 0 42,15.00781 56.56854,45.456862 0 0 0 56.57031,-45.45703 56.56854,45.456862 0 0 0 -56.57031,-45.45703 56.56854,45.456862 0 0 0 -42,15.00586 56.56854,45.456862 0 0 0 -42,-15.00586 z"
               transform="scale(0.26458333)"
               inkscape:connector-curvature="0" />
            <path
               id="ellipse869"
               style="fill:#ffffff;fill-opacity:1;stroke:none;stroke-width:2.9596;stroke-miterlimit:4;stroke-dasharray:none"
               d="m 49.348924,125.11847 c -1.240295,0.0125 -2.643823,0.16253 -4.180623,0.49661 -4.941115,1.07416 -8.150569,5.76903 -9.221658,7.57215 0.49262,1.67838 1.428623,3.25202 2.744536,4.61419 14.836698,-5.14404 16.731594,-0.63926 16.633608,-10.31513 0,-1.20271 -2.25497,-2.4054 -5.975863,-2.36782 z"
               inkscape:connector-curvature="0"
               sodipodi:nodetypes="sscccs" />
            <path
               id="path902"
               d="M 45.677734 127.3457 A 1.322915 1.322915 0 0 0 44.353516 128.66797 C 44.353513 130.34596 45.320498 131.87687 46.808594 132.67969 C 48.296691 133.48251 50.093934 133.48251 51.582031 132.67969 C 53.070127 131.87687 54.035159 130.34596 54.035156 128.66797 A 1.322915 1.322915 0 0 0 52.712891 127.3457 A 1.322915 1.322915 0 0 0 51.390625 128.66797 C 51.390626 129.3389 51.015048 129.97797 50.326172 130.34961 C 49.637301 130.72125 48.753324 130.72125 48.064453 130.34961 C 47.375577 129.97797 46.999999 129.3389 47 128.66797 A 1.322915 1.322915 0 0 0 45.677734 127.3457 z "
               style="color:#000000;font-style:normal;font-variant:normal;font-weight:normal;font-stretch:normal;font-size:medium;line-height:normal;font-family:sans-serif;font-variant-ligatures:normal;font-variant-position:normal;font-variant-caps:normal;font-variant-numeric:normal;font-variant-alternates:normal;font-variant-east-asian:normal;font-feature-settings:normal;font-variation-settings:normal;text-indent:0;text-align:start;text-decoration:none;text-decoration-line:none;text-decoration-style:solid;text-decoration-color:#000000;letter-spacing:normal;word-spacing:normal;text-transform:none;writing-mode:lr-tb;direction:ltr;text-orientation:mixed;dominant-baseline:auto;baseline-shift:baseline;text-anchor:start;white-space:normal;shape-padding:0;shape-margin:0;inline-size:0;clip-rule:nonzero;display:inline;overflow:visible;visibility:visible;isolation:auto;mix-blend-mode:normal;color-interpolation:sRGB;color-interpolation-filters:linearRGB;solid-color:#000000;solid-opacity:1;vector-effect:none;fill:#666666;fill-opacity:1;fill-rule:nonzero;stroke:none;stroke-width:2.64583;stroke-linecap:round;stroke-linejoin:miter;stroke-miterlimit:4;stroke-dasharray:none;stroke-dashoffset:0;stroke-opacity:1;anonymous:0;color-rendering:auto;image-rendering:auto;shape-rendering:auto;text-rendering:auto;enable-background:accumulate;stop-color:#000000;stop-opacity:1;opacity:1" />
            <path
               sodipodi:nodetypes="sscccs"
               inkscape:connector-curvature="0"
               d="m 73.903986,125.11847 c 1.240295,0.0125 2.643823,0.16253 4.180623,0.49661 4.941115,1.07416 8.150569,5.76903 9.221658,7.57215 -0.49262,1.67838 -1.428623,3.25202 -2.744536,4.61419 -14.836698,-5.14404 -16.731594,-0.63926 -16.633608,-10.31513 0,-1.20271 2.25497,-2.4054 5.975863,-2.36782 z"
               style="fill:#ffffff;fill-opacity:1;stroke:none;stroke-width:2.9596;stroke-miterlimit:4;stroke-dasharray:none"
               id="path899" />
            <path
               id="path898"
               d="M 70.541016 127.3457 A 1.322915 1.322915 0 0 0 69.216797 128.66797 C 69.216794 130.34596 70.183779 131.87687 71.671875 132.67969 C 73.159972 133.48251 74.957216 133.48251 76.445312 132.67969 C 77.933408 131.87687 78.89844 130.34596 78.898438 128.66797 A 1.322915 1.322915 0 0 0 77.576172 127.3457 A 1.322915 1.322915 0 0 0 76.253906 128.66797 C 76.253907 129.3389 75.87833 129.97797 75.189453 130.34961 C 74.500582 130.72125 73.616606 130.72125 72.927734 130.34961 C 72.238858 129.97797 71.86328 129.3389 71.863281 128.66797 A 1.322915 1.322915 0 0 0 70.541016 127.3457 z "
               style="color:#000000;font-style:normal;font-variant:normal;font-weight:normal;font-stretch:normal;font-size:medium;line-height:normal;font-family:sans-serif;font-variant-ligatures:normal;font-variant-position:normal;font-variant-caps:normal;font-variant-numeric:normal;font-variant-alternates:normal;font-variant-east-asian:normal;font-feature-settings:normal;font-variation-settings:normal;text-indent:0;text-align:start;text-decoration:none;text-decoration-line:none;text-decoration-style:solid;text-decoration-color:#000000;letter-spacing:normal;word-spacing:normal;text-transform:none;writing-mode:lr-tb;direction:ltr;text-orientation:mixed;dominant-baseline:auto;baseline-shift:baseline;text-anchor:start;white-space:normal;shape-padding:0;shape-margin:0;inline-size:0;clip-rule:nonzero;display:inline;overflow:visible;visibility:visible;isolation:auto;mix-blend-mode:normal;color-interpolation:sRGB;color-interpolation-filters:linearRGB;solid-color:#000000;solid-opacity:1;vector-effect:none;fill:#666666;fill-opacity:1;fill-rule:nonzero;stroke:none;stroke-width:2.64583;stroke-linecap:round;stroke-linejoin:miter;stroke-miterlimit:4;stroke-dasharray:none;stroke-dashoffset:0;stroke-opacity:1;anonymous:0;color-rendering:auto;image-rendering:auto;shape-rendering:auto;text-rendering:auto;enable-background:accumulate;stop-color:#000000;stop-opacity:1;opacity:1" />
          </g>
          <path
             inkscape:connector-curvature="0"
             id="path894"
             d="m 57.808305,131.76121 a 1.322915,1.322915 0 0 0 -1.324219,1.32226 c -3e-6,1.67799 0.966983,3.20891 2.455078,4.01172 1.488097,0.80282 3.285341,0.80282 4.773438,0 1.488095,-0.80281 2.453128,-2.33373 2.453125,-4.01172 a 1.322915,1.322915 0 0 0 -1.322266,-1.32226 1.322915,1.322915 0 0 0 -1.322265,1.32226 c 10e-7,0.67093 -0.375577,1.31195 -1.064454,1.6836 -0.688871,0.37164 -1.572847,0.37164 -2.261718,0 -0.688877,-0.37165 -1.064455,-1.01267 -1.064453,-1.6836 a 1.322915,1.322915 0 0 0 -1.322266,-1.32226 z"
             style="color:#000000;font-style:normal;font-variant:normal;font-weight:normal;font-stretch:normal;font-size:medium;line-height:normal;font-family:sans-serif;font-variant-ligatures:normal;font-variant-position:normal;font-variant-caps:normal;font-variant-numeric:normal;font-variant-alternates:normal;font-variant-east-asian:normal;font-feature-settings:normal;font-variation-settings:normal;text-indent:0;text-align:start;text-decoration:none;text-decoration-line:none;text-decoration-style:solid;text-decoration-color:#000000;letter-spacing:normal;word-spacing:normal;text-transform:none;writing-mode:lr-tb;direction:ltr;text-orientation:mixed;dominant-baseline:auto;baseline-shift:baseline;text-anchor:start;white-space:normal;shape-padding:0;shape-margin:0;inline-size:0;clip-rule:nonzero;display:inline;overflow:visible;visibility:visible;opacity:1;isolation:auto;mix-blend-mode:normal;color-interpolation:sRGB;color-interpolation-filters:linearRGB;solid-color:#000000;solid-opacity:1;vector-effect:none;fill:#ffffff;fill-opacity:1;fill-rule:nonzero;stroke:none;stroke-width:2.64583;stroke-linecap:round;stroke-linejoin:miter;stroke-miterlimit:4;stroke-dasharray:none;stroke-dashoffset:0;stroke-opacity:1;color-rendering:auto;image-rendering:auto;shape-rendering:auto;text-rendering:auto;enable-background:accumulate;stop-color:#000000;stop-opacity:1" />
          <path
             d="m 64.151361,129.47763 a 2.8259635,2.1915636 0 0 1 -2.825964,2.19156 2.8259635,2.1915636 0 0 1 -2.825963,-2.19156 2.8259635,2.1915636 0 0 1 2.825963,-2.19156 2.8259635,2.1915636 0 0 1 2.825964,2.19156"
             style="fill:#ffffff;fill-opacity:1;stroke:none;stroke-width:2.64583;stroke-miterlimit:4;stroke-dasharray:none"
             id="path873" />
        </g>
      </g>
      <path
         sodipodi:nodetypes="cccc"
         inkscape:connector-curvature="0"
         id="path857"
         d="m 62.846263,120.00433 c 0,0 17.257293,-31.687361 17.089401,-50.228635 0,0 23.254526,23.738515 6.822146,59.385615 z"
         style="display:inline;opacity:1;fill:#ffffff;fill-opacity:1;stroke:none;stroke-width:2.64583;stroke-linecap:butt;stroke-linejoin:miter;stroke-miterlimit:4;stroke-dasharray:none;stroke-opacity:1" />
      <path
         style="display:inline;opacity:1;fill:none;fill-opacity:1;stroke:#666666;stroke-width:2.64583;stroke-linecap:round;stroke-linejoin:miter;stroke-miterlimit:4;stroke-dasharray:none;stroke-opacity:1"
         d="m 59.167627,126.52132 c 0,0 20.935928,-37.56477 20.768037,-56.106044 0,0 23.254526,23.098934 6.822146,58.746034"
         id="path945"
         inkscape:connector-curvature="0"
         sodipodi:nodetypes="ccc" />
    </g>
  </g>
</svg>
