<?xml version="1.0" encoding="UTF-8" standalone="no"?>
<svg
   xmlns:dc="http://purl.org/dc/elements/1.1/"
   xmlns:cc="http://creativecommons.org/ns#"
   xmlns:rdf="http://www.w3.org/1999/02/22-rdf-syntax-ns#"
   xmlns:svg="http://www.w3.org/2000/svg"
   xmlns="http://www.w3.org/2000/svg"
   width="95.889412mm"
   height="95.889412mm"
   viewBox="0 0 95.889412 95.889412"
   version="1.1"
   id="svg8">
  <defs
     id="defs2" />
  <metadata
     id="metadata5">
    <rdf:RDF>
      <cc:Work
         rdf:about="">
        <dc:format>image/svg+xml</dc:format>
        <dc:type
           rdf:resource="http://purl.org/dc/dcmitype/StillImage" />
        <dc:title></dc:title>
      </cc:Work>
    </rdf:RDF>
  </metadata>
  <g
     transform="translate(-26.222581,-67.382084)"
     style="display:inline"
     id="layer1">
    <circle
       transform="rotate(-15.556619)"
       style="fill:#0077ff;fill-opacity:1;stroke:#000000;stroke-width:2.593;stroke-opacity:1"
       id="path901"
       cx="40.520687"
       cy="130.99286"
       r="46.638527" />
  </g>
  <g
     transform="translate(-26.222581,-67.382084)"
     style="display:inline;opacity:1"
     id="layer3">
    <g
       transform="rotate(-15.556619,74.16729,115.3268)"
       id="g957">
      <path
         id="path853"
         style="fill:#c87137;fill-opacity:1;stroke:#000000;stroke-width:10.1015;stroke-miterlimit:4;stroke-dasharray:none;stroke-opacity:1"
         d="m 347.49219,285.87305 c -7.53368,28.04199 -28.24791,59.53955 -49.92578,86.83007 -13.02515,-22.20561 -34.43582,-38.89471 -59.69532,-46.26757 -12.2324,-3.57045 -33.50273,-4.48703 -45.88281,-1.97852 -37.86589,7.67263 -68.72923,35.56828 -77.24414,69.81445 -3.89952,15.68349 -4.96793,24.92847 -4.89453,42.38868 0.14396,34.26648 9.65179,65.61138 28.38867,93.59179 28.65273,42.78811 72.80985,69.63269 124.38086,75.61719 10.35842,1.20204 34.9217,0.40006 45.96289,-1.50195 49.42558,-8.51426 92.54368,-38.13962 118.51758,-81.42969 29.50798,-49.1802 31.86868,-111.44844 6.16797,-162.68359 -5.50205,-10.9686 -13.90396,-33.23809 -15.28549,-33.23809 -0.44379,0 -2.86555,9.1709 -3.24967,12.91973 -2.08857,20.38562 -11.20225,50.3425 -21.86914,71.88086 -15.05238,30.39341 -35.07422,55.09829 -61.16406,75.4707 -8.49934,6.63677 -18.07061,13.85761 -19.56208,11.72827 -0.50096,-0.71522 8.11464,-8.51054 7.232,-8.9021 85.56016,-109.42768 28.12305,-204.24023 28.12305,-204.24023 z"
         transform="scale(0.26458333)" />
      <g
         style="display:inline"
         id="g932"
         transform="matrix(0.81717234,-0.31446688,0.31446688,0.81717234,-35.554462,19.874877)">
        <g
           id="g922">
          <path
             id="path863"
             style="fill:#fcf9bc;fill-opacity:1;stroke:none;stroke-width:11.1859;stroke-miterlimit:4;stroke-dasharray:none"
             d="m 190.91797,447.49219 a 56.56854,45.456862 0 0 0 -56.56836,45.45703 56.56854,45.456862 0 0 0 56.56836,45.45703 56.56854,45.456862 0 0 0 42,-15.00781 56.56854,45.456862 0 0 0 42,15.00781 56.56854,45.456862 0 0 0 56.57031,-45.45703 56.56854,45.456862 0 0 0 -56.57031,-45.45703 56.56854,45.456862 0 0 0 -42,15.00586 56.56854,45.456862 0 0 0 -42,-15.00586 z"
             transform="scale(0.26458333)" />
          <path
             id="ellipse869"
             style="fill:#0077ff;fill-opacity:1;stroke:none;stroke-width:2.9596;stroke-miterlimit:4;stroke-dasharray:none"
             d="m 49.348924,125.11847 c -1.240295,0.0125 -2.643823,0.16253 -4.180623,0.49661 -4.941115,1.07416 -8.150569,5.76903 -9.221658,7.57215 0.49262,1.67838 1.428623,3.25202 2.744536,4.61419 14.836698,-5.14404 16.731594,-0.63926 16.633608,-10.31513 0,-1.20271 -2.25497,-2.4054 -5.975863,-2.36782 z" />
          <path
             id="path889"
             style="fill:none;fill-opacity:1;stroke:#000000;stroke-width:2.64583;stroke-linecap:round;stroke-miterlimit:4;stroke-dasharray:none;stroke-opacity:1"
             d="m 52.712872,128.66783 c 2e-6,1.17446 -0.670532,2.2597 -1.759018,2.84693 -1.088484,0.58723 -2.429552,0.58723 -3.518036,0 -1.088486,-0.58723 -1.75902,-1.67247 -1.759018,-2.84693" />
          <path
             d="m 73.903986,125.11847 c 1.240295,0.0125 2.643823,0.16253 4.180623,0.49661 4.941115,1.07416 8.150569,5.76903 9.221658,7.57215 -0.49262,1.67838 -1.428623,3.25202 -2.744536,4.61419 -14.836698,-5.14404 -16.731594,-0.63926 -16.633608,-10.31513 0,-1.20271 2.25497,-2.4054 5.975863,-2.36782 z"
             style="fill:#0077ff;fill-opacity:1;stroke:none;stroke-width:2.9596;stroke-miterlimit:4;stroke-dasharray:none"
             id="path899" />
          <path
             d="m 70.540038,128.66783 c -2e-6,1.17446 0.670532,2.2597 1.759018,2.84693 1.088484,0.58723 2.429552,0.58723 3.518036,0 1.088486,-0.58723 1.75902,-1.67247 1.759018,-2.84693"
             style="fill:none;fill-opacity:1;stroke:#000000;stroke-width:2.64583;stroke-linecap:round;stroke-miterlimit:4;stroke-dasharray:none;stroke-opacity:1"
             id="path902" />
        </g>
        <path
           id="path915"
           style="fill:none;fill-opacity:1;stroke:#000000;stroke-width:2.64583;stroke-linecap:round;stroke-miterlimit:4;stroke-dasharray:none;stroke-opacity:1"
           d="m 65.144506,135.12718 c 2e-6,1.17446 -0.670532,2.2597 -1.759018,2.84693 -1.088484,0.58723 -2.429552,0.58723 -3.518036,0 -1.088486,-0.58723 -1.75902,-1.67247 -1.759018,-2.84693" />
        <ellipse
           ry="2.1915636"
           rx="2.8259635"
           cy="131.52112"
           cx="61.626469"
           id="path873"
           style="fill:#350000;fill-opacity:1;stroke:none;stroke-width:2.64583;stroke-miterlimit:4;stroke-dasharray:none" />
      </g>
    </g>
  </g>
  <g
     transform="translate(-26.222581,-67.382084)"
     style="display:inline"
     id="layer4">
    <path
       id="path857"
       d="m 62.846263,120.00433 c 0,0 17.257293,-31.687361 17.089401,-50.228635 0,0 23.254526,23.738515 6.822146,59.385615 z"
       style="display:inline;opacity:1;fill:#c87137;fill-opacity:1;stroke:none;stroke-width:2.64583;stroke-linecap:butt;stroke-linejoin:miter;stroke-miterlimit:4;stroke-dasharray:none;stroke-opacity:1" />
    <path
       style="display:inline;opacity:1;fill:none;fill-opacity:1;stroke:#000000;stroke-width:2.64583;stroke-linecap:round;stroke-linejoin:miter;stroke-miterlimit:4;stroke-dasharray:none;stroke-opacity:1"
       d="m 59.167627,126.52132 c 0,0 21.645516,-35.655446 21.477625,-54.19672 0,0 22.544938,21.18961 6.112558,56.83671"
       id="path945" />
  </g>
</svg>
